<svg id="Layer_1" data-name="Layer 1" xmlns="http://www.w3.org/2000/svg" viewBox="0 0 640 896"><title>git-ic</title><path d="M512,192A128.07,128.07,0,0,0,384,320c0,47.22,25.88,88.06,64,110.28V448s0,128-128,128c-53.06,0-94.66,11.38-128,28.81V302.28c38.16-22.22,64-63.06,64-110.28A128,128,0,0,0,0,192c0,47.22,25.84,88.06,64,110.28V721.75C25.84,743.94,0,784.75,0,832a128,128,0,0,0,256,0c0-33.5-13.19-63.75-34.25-86.62C240.38,722.5,270.66,704,320,704c254,0,256-256,256-256V430.28c38.13-22.22,64-63.06,64-110.28A128.07,128.07,0,0,0,512,192ZM128,128a64,64,0,1,1-64,64A63.92,63.92,0,0,1,128,128Zm0,768a64,64,0,1,1,64-64A63.94,63.94,0,0,1,128,896ZM512,384a64,64,0,1,1,64-64A63.94,63.94,0,0,1,512,384Z" transform="translate(0 -64)"/></svg>