<svg id="Capa_1" data-name="Capa 1" xmlns="http://www.w3.org/2000/svg" viewBox="0 0 213.06 87.82"><title>handlebars-ic</title><path d="M202.67,134.9c-9,10.31-23.18,15.54-42.07,15.54-34.26,0-48.31-11.3-54.07-20.68-5.76,9.38-19.81,20.68-54.07,20.68-18.89,0-33-5.23-42.07-15.54C-2.21,120.51.13,101.73.24,100.94a4,4,0,0,1,8,.66c0,1.47.58,9.1,13.3,9.4h.13c5.69,0,11.73-9.55,17.57-18.79C48,78.34,57.9,62.62,74.33,62.62c18.1,0,27.6,8.15,32.2,14.35,4.6-6.19,14.1-14.35,32.2-14.35,16.43,0,26.37,15.72,35.14,29.59,5.84,9.24,11.88,18.79,17.57,18.79h.13c12.71-.3,13.3-7.92,13.29-9.44a4,4,0,0,1,3.67-4.1,4,4,0,0,1,4.3,3.48C212.93,101.73,215.26,120.51,202.67,134.9Z" transform="translate(0 -62.62)"/></svg>