<svg id="Layer_1" data-name="Layer 1" xmlns="http://www.w3.org/2000/svg" viewBox="0 0 506.85 488.28"><title>jquery-ic</title><g id="Layer_6" data-name="Layer 6"><path d="M34.32,126.05C-10.56,190.55-5,274.46,29.31,343c.82,1.64,1.67,3.26,2.51,4.88.54,1,1,2.07,1.6,3.08.31.61.67,1.2,1,1.78.59,1.1,1.18,2.13,1.79,3.2q1.6,2.81,3.27,5.61c.62,1,1.23,2,1.87,3.07q1.85,3,3.8,5.94c.54.84,1.06,1.68,1.62,2.49,1.79,2.67,3.61,5.33,5.5,7.94l.16.2c.3.42.63.83.93,1.25,1.63,2.25,3.31,4.47,5,6.67l1.89,2.4q2.27,2.86,4.63,5.69c.59.7,1.18,1.42,1.77,2.11,2.11,2.48,4.26,5,6.46,7.38l.13.14c.09.1.17.17.25.27,2.14,2.34,4.34,4.64,6.56,6.92l2.1,2.12c1.72,1.73,3.47,3.43,5.24,5.14.72.68,1.43,1.38,2.14,2,2.36,2.22,4.75,4.4,7.18,6.53a.36.36,0,0,0,.11.09c.41.37.84.72,1.25,1.06q3.22,2.79,6.52,5.52l2.7,2.15q2.69,2.16,5.44,4.25l2.91,2.21c2,1.48,4,2.94,6.1,4.37.75.54,1.47,1.06,2.22,1.58.21.15.4.3.61.44,1.95,1.33,3.93,2.63,5.92,3.92.85.57,1.7,1.15,2.57,1.71,3.05,1.93,6.14,3.83,9.27,5.68l2.56,1.44c2.3,1.33,4.61,2.63,7,3.9,1.27.68,2.57,1.33,3.85,2,1.66.87,3.3,1.75,5,2.59.38.2.78.38,1.15.56.67.33,1.35.65,2,1q3.91,1.87,7.89,3.65l1.67.74q4.56,2,9.21,3.83l2.24.88c2.87,1.1,5.77,2.19,8.68,3.22l1.09.37c3.2,1.12,6.43,2.16,9.69,3.17l2.34.7a95.11,95.11,0,0,0,10,2.82c217,39.57,280.06-130.42,280.06-130.42-52.94,69-146.92,87.17-236,66.91-3.38-.76-6.65-1.81-9.94-2.79l-2.48-.75q-4.82-1.48-9.57-3.11l-1.32-.47c-2.84-1-5.64-2-8.44-3.13l-2.36-.93c-3.06-1.21-6.11-2.47-9.11-3.79-.62-.26-1.21-.54-1.82-.81-2.58-1.17-5.14-2.34-7.69-3.57l-2.22-1.07c-2-1-4-2-5.94-3-1.32-.69-2.66-1.36-4-2.08-2.41-1.29-4.77-2.63-7.12-4-.8-.45-1.6-.88-2.41-1.34-3.13-1.84-6.22-3.75-9.28-5.69-.84-.54-1.67-1.11-2.5-1.66-2.22-1.43-4.43-2.89-6.6-4.39-.72-.48-1.42-1-2.13-1.49q-3.15-2.22-6.24-4.51c-.93-.69-1.86-1.4-2.76-2.09-1.89-1.45-3.77-2.9-5.63-4.4l-2.51-2c-2.37-1.95-4.7-3.9-7-5.9-.24-.22-.5-.42-.77-.64-2.49-2.2-5-4.45-7.37-6.71-.71-.67-1.39-1.32-2.08-2q-2.7-2.55-5.3-5.19l-2.08-2.07q-3.31-3.4-6.5-6.88c-.11-.11-.22-.22-.32-.34-2.25-2.46-4.44-5-6.59-7.51l-1.73-2c-1.6-1.93-3.19-3.89-4.74-5.87-.59-.7-1.17-1.44-1.74-2.16-1.86-2.42-3.69-4.84-5.48-7.3C47.59,251,29.83,158,69.34,81.63" transform="translate(-2.13 -11.37)"/><path d="M173.62,71.71c-32.45,46.71-30.69,109.21-5.38,158.61a206.66,206.66,0,0,0,14.36,24c4.86,7,10.25,15.26,16.7,20.85,2.34,2.58,4.79,5.09,7.28,7.56.63.65,1.28,1.26,1.92,1.9,2.42,2.34,4.89,4.66,7.44,6.9.1.09.2.19.3.26s.05,0,.07.08c2.82,2.47,5.73,4.85,8.69,7.18.66.5,1.31,1,2,1.54,3,2.27,6,4.51,9.09,6.64l.26.21c1.37.94,2.76,1.82,4.15,2.73.67.43,1.3.89,2,1.3,2.21,1.42,4.46,2.8,6.74,4.13.32.2.64.36,1,.55,2,1.13,4,2.25,6,3.33.7.4,1.41.74,2.12,1.11,1.38.72,2.76,1.45,4.17,2.16l.63.28c2.86,1.41,5.75,2.77,8.69,4,.63.28,1.28.52,1.92.79,2.35,1,4.73,2,7.12,2.89,1,.39,2,.75,3.05,1.12,2.17.8,4.35,1.54,6.54,2.28,1,.31,2,.64,3,.94a72.93,72.93,0,0,0,9.46,2.73C470.29,365.56,509,236.54,509,236.54,474.1,286.75,406.57,310.73,334.51,292c-3.2-.84-6.35-1.76-9.49-2.74-1-.29-1.9-.61-2.85-.92-2.23-.72-4.44-1.49-6.64-2.29-1-.36-2-.73-3-1.11-2.41-.93-4.79-1.88-7.14-2.89-.64-.28-1.3-.52-1.92-.81-3-1.29-5.87-2.65-8.74-4.06-1.48-.73-2.93-1.49-4.38-2.23l-2.53-1.31q-2.8-1.52-5.55-3.13c-.43-.25-.88-.48-1.32-.75q-3.41-2-6.72-4.1c-.68-.44-1.34-.91-2-1.36-1.46-.95-2.92-1.91-4.35-2.88-3.09-2.12-6.1-4.36-9.06-6.63-.68-.54-1.37-1.06-2-1.6-31.55-24.91-56.54-58.94-68.43-97.53-12.46-40-9.78-84.95,11.81-121.41" transform="translate(-2.13 -11.37)"/><path d="M290.77,31.12c-19.13,28.15-21,63.12-7.73,94.22,14,33,42.68,58.9,76.17,71.17,1.38.51,2.76,1,4.16,1.45.61.19,1.21.4,1.83.57a51.94,51.94,0,0,0,6,1.73c92.52,17.88,117.61-47.48,124.3-57.1-22,31.65-58.92,39.25-104.25,28.25-3.58-.88-7.52-2.17-11-3.4a133.79,133.79,0,0,1-13-5.41,135.34,135.34,0,0,1-22.83-13.93c-40.56-30.78-65.76-89.49-39.29-137.3" transform="translate(-2.13 -11.37)"/></g></svg>