<svg id="Layer_1" data-name="Layer 1" xmlns="http://www.w3.org/2000/svg" viewBox="0 0 495.63 378.42"><title>js-ic-hover</title><g id="Layer_1-2" data-name="Layer 1"><path d="M116.67,73.55h81.55V302.1c0,103-49.36,139-128.23,139-19.31,0-44-3.22-60.09-8.58l9.12-66a134.51,134.51,0,0,0,41.85,6.44c34.34,0,55.8-15.56,55.8-71.36Z" transform="translate(-7.14 -65.14)" style="fill:#fff200;stroke:#000;stroke-miterlimit:10;stroke-width:5px"/><path d="M269,351.46C290.49,362.73,324.83,374,359.7,374c37.56,0,57.41-15.56,57.41-39.7,0-22-17.17-35.41-60.63-50.43C296.39,262.4,256.69,229.14,256.69,176c0-61.7,52-108.38,136.81-108.38,41.31,0,70.82,8.05,92.28,18.24l-18.24,65.46a169.15,169.15,0,0,0-75.11-17.17c-35.41,0-52.58,16.63-52.58,34.87,0,23.07,19.85,33.26,67.07,51.51,63.84,23.61,93.35,56.87,93.35,108.38,0,60.63-46.14,112.13-145.4,112.13-41.31,0-82.09-11.27-102.48-22.53Z" transform="translate(-7.14 -65.14)" style="fill:#fff200;stroke:#000;stroke-miterlimit:10;stroke-width:5px"/></g></svg>