<svg id="Layer_1" data-name="Layer 1" xmlns="http://www.w3.org/2000/svg" viewBox="0 0 506.37 385.61"><title>js-ic</title><g id="Layer_1-2" data-name="Layer 1"><path d="M112.15,67.64h84.21v236c0,106.38-51,143.5-132.41,143.5-19.94,0-45.43-3.32-62.05-8.86l9.42-68.15a138.9,138.9,0,0,0,43.21,6.65c35.46,0,57.62-16.07,57.62-73.69Z" transform="translate(-1.9 -61.55)"/><path d="M269.48,354.63c22.16,11.64,57.62,23.27,93.63,23.27,38.78,0,59.28-16.07,59.28-41,0-22.71-17.73-36.57-62.61-52.08-62.05-22.16-103-56.51-103-111.36,0-63.71,53.74-111.92,141.28-111.92,42.66,0,73.13,8.31,95.29,18.84L474.48,148a174.67,174.67,0,0,0-77.56-17.73c-36.57,0-54.3,17.18-54.3,36,0,23.82,20.5,34.35,69.26,53.19,65.93,24.38,96.4,58.73,96.4,111.92,0,62.61-47.65,115.79-150.14,115.79-42.66,0-84.77-11.64-105.82-23.27Z" transform="translate(-1.9 -61.55)"/></g></svg>