<svg id="Layer_1" data-name="Layer 1" xmlns="http://www.w3.org/2000/svg" viewBox="0 0 156.49 177.77"><title>mochajs-ic</title><path id="_Path_" data-name="&lt;Path&gt;" d="M169.47,143.9l-68.7,39.69a9.48,9.48,0,0,1-9.54,0L22.53,143.9a9.54,9.54,0,0,1-4.77-8.21V56.31a9.42,9.42,0,0,1,4.77-8.21L91.23,8.4a9.48,9.48,0,0,1,9.54,0l68.7,39.69a9.54,9.54,0,0,1,4.77,8.21v79.39a10,10,0,0,1-4.77,8.21Z" transform="translate(-17.76 -7.12)" style="fill:#020202"/><path id="_Compound_Path_" data-name="&lt;Compound Path&gt;" d="M95.9,22h0a5.4,5.4,0,0,1,2.67.76l59.35,34.26a5.49,5.49,0,0,1,2.67,4.68v68.51a5.49,5.49,0,0,1-2.67,4.68L98.58,169.19a5.4,5.4,0,0,1-2.67.76,5.13,5.13,0,0,1-2.67-.76L33.88,134.93a5.49,5.49,0,0,1-2.67-4.68V61.74a5.49,5.49,0,0,1,2.67-4.68L93.23,22.81A5.69,5.69,0,0,1,95.9,22m0-2.86a7.84,7.84,0,0,0-4.1,1.15L32.45,54.59a8.1,8.1,0,0,0-4.1,7.06v68.51a8,8,0,0,0,4.1,7.06L91.8,171.48a7.92,7.92,0,0,0,8.21,0l59.35-34.26a8.1,8.1,0,0,0,4.1-7.06V61.65a8,8,0,0,0-4.1-7.06L100,20.33a7.84,7.84,0,0,0-4.1-1.15Z" transform="translate(-17.76 -7.12)" style="fill:#fff"/><g id="_Group_" data-name="&lt;Group&gt;"><g id="_Group_2" data-name="&lt;Group&gt;"><g id="_Group_3" data-name="&lt;Group&gt;"><path id="path8" d="M104.35,61.65a1,1,0,0,0-1-1H85.46a1,1,0,0,0-1,1c0,3.24.48,14.41,5.25,19.85a.87.87,0,0,0,.67.29h8a.87.87,0,0,0,.67-.29C103.87,76.15,104.35,65,104.35,61.65ZM97.29,79H91.66a.87.87,0,0,1-.67-.29c-3.24-3.82-3.63-11.45-3.72-14.12a1,1,0,0,1,1-1h12.6a1,1,0,0,1,1,1c0,2.67-.48,10.21-3.72,14.12A1.27,1.27,0,0,1,97.29,79Z" transform="translate(-17.76 -7.12)" style="fill:#fff"/></g></g><path id="_Path_2" data-name="&lt;Path&gt;" d="M96.24,58.79a4,4,0,0,0,1.34-5.63c-1.24-1.91-1.81-3.53-1.34-4.2-1.24,1.53-3.34,3.15-1,6.58A5.38,5.38,0,0,1,96.24,58.79Z" transform="translate(-17.76 -7.12)" style="fill:#fff"/><path id="_Path_3" data-name="&lt;Path&gt;" d="M92.42,59.07a2.68,2.68,0,0,0,.86-3.82c-.86-1.24-1.24-2.39-.86-2.77-.86,1-2.19,2.1-.67,4.48A3.86,3.86,0,0,1,92.42,59.07Z" transform="translate(-17.76 -7.12)" style="fill:#fff"/><path id="_Path_4" data-name="&lt;Path&gt;" d="M100.25,70.14c-.38,2.58-1.15,5.53-2.77,7.44a.82.82,0,0,1-.57.29H92.14a.68.68,0,0,1-.57-.29,13.68,13.68,0,0,1-2.39-5.34s5.53.76,8.68-.38C100.15,71,100.25,70.14,100.25,70.14Z" transform="translate(-17.76 -7.12)" style="fill:#fff"/></g><g id="g13"><path id="path15" d="M37.55,85.6h3.53l5.82,9,5.82-9h3.53v19.08H52.92V91l-6,9h-.1l-5.92-8.87v13.65H37.55Z" transform="translate(-17.76 -7.12)" style="fill:#fff"/><path id="path17" d="M73.53,105a11.09,11.09,0,0,1-4-.76,9.12,9.12,0,0,1-3.15-2.1,8.91,8.91,0,0,1-2-3.15,10.09,10.09,0,0,1-.76-3.82V95a10.47,10.47,0,0,1,.76-3.82,9.58,9.58,0,0,1,2.1-3.15A9.12,9.12,0,0,1,69.62,86a9.39,9.39,0,0,1,4-.76,11.09,11.09,0,0,1,4,.76,9.12,9.12,0,0,1,3.15,2.1,8.91,8.91,0,0,1,2,3.15A10.09,10.09,0,0,1,83.55,95v.1A10.47,10.47,0,0,1,82.78,99a9.58,9.58,0,0,1-2.1,3.15,9.12,9.12,0,0,1-3.15,2.1A9.39,9.39,0,0,1,73.53,105Zm0-3.05a5.68,5.68,0,0,0,2.58-.57,7.64,7.64,0,0,0,2-1.43,7.88,7.88,0,0,0,1.34-2.1,8.18,8.18,0,0,0,.48-2.58v-.1a8.28,8.28,0,0,0-.48-2.67,6.47,6.47,0,0,0-1.34-2.19,7.64,7.64,0,0,0-2-1.43,6.08,6.08,0,0,0-5.15,0,7.64,7.64,0,0,0-2,1.43,7.88,7.88,0,0,0-1.34,2.1A8.18,8.18,0,0,0,67.14,95V95a8.28,8.28,0,0,0,.48,2.67,6.47,6.47,0,0,0,1.34,2.19,7.64,7.64,0,0,0,2,1.43A6,6,0,0,0,73.53,101.92Z" transform="translate(-17.76 -7.12)" style="fill:#fff"/><path id="path19" d="M99.67,105a9.45,9.45,0,0,1-6.87-2.86,8.91,8.91,0,0,1-2-3.15A10.47,10.47,0,0,1,90,95.14V95a10.09,10.09,0,0,1,.76-3.82,11,11,0,0,1,2-3.15A9.12,9.12,0,0,1,96,86a10.71,10.71,0,0,1,4-.76,18.59,18.59,0,0,1,2.39.19c.76.19,1.34.38,2,.57a9.06,9.06,0,0,1,1.62,1,16.59,16.59,0,0,1,1.43,1.24l-2.19,2.48a13.71,13.71,0,0,0-2.39-1.72,5.89,5.89,0,0,0-3-.67,5.28,5.28,0,0,0-2.48.57,7.64,7.64,0,0,0-2,1.43A7.88,7.88,0,0,0,94,92.37,8.18,8.18,0,0,0,93.57,95V95A8.28,8.28,0,0,0,94,97.72a6.47,6.47,0,0,0,1.34,2.19,5.94,5.94,0,0,0,2,1.43,7.25,7.25,0,0,0,2.48.57,5.66,5.66,0,0,0,3-.67,18,18,0,0,0,2.48-1.81l2.19,2.19a10.85,10.85,0,0,1-1.53,1.43,8.31,8.31,0,0,1-1.72,1,7.08,7.08,0,0,1-2,.67,11.72,11.72,0,0,1-2.58.19Z" transform="translate(-17.76 -7.12)" style="fill:#fff"/><path id="path21" d="M114.18,85.6h3.34v7.92h9.16V85.6H130v19.08h-3.34v-8h-9.16v8h-3.34Z" transform="translate(-17.76 -7.12)" style="fill:#fff"/><path id="path23" d="M144.81,85.5h3.05l8.4,19.18h-3.53l-1.91-4.58h-9l-2,4.58h-3.44Zm4.77,11.64-3.24-7.63-3.24,7.63h6.49Z" transform="translate(-17.76 -7.12)" style="fill:#fff"/></g><rect id="_Path_5" data-name="&lt;Path&gt;" x="17.41" y="103.58" width="121.66" height="1.05" style="fill:#fff"/><path id="_Path_6" data-name="&lt;Path&gt;" d="M156.83,74.82H105.11c0,.38-.1.67-.1,1h51.81v-1Z" transform="translate(-17.76 -7.12)" style="fill:#fff"/><path id="_Path_7" data-name="&lt;Path&gt;" d="M35.17,74.82v1H83.93c0-.38-.1-.67-.1-1Z" transform="translate(-17.76 -7.12)" style="fill:#fff"/></svg>