<svg id="Layer_1" data-name="Layer 1" xmlns="http://www.w3.org/2000/svg" viewBox="0 0 97.89 218.64"><title>mongodb-ic</title><path d="M49.48,2.81" transform="translate(-3.02 -2.81)" style="fill:none"/><path d="M44.17,189s4.64-22.44,5.31-30c3.41-38.9,0-156.19,0-156.19S4.62,35.68,3.06,99.14C1.61,158.28,44.17,189,44.17,189Z" transform="translate(-3.02 -2.81)" style="fill:#020202"/><path d="M55,6S56.56,67,57.19,117.25C57.46,138,54.8,155.77,55,167.69A37.3,37.3,0,0,0,62,189s37.41-25,38.86-83.37C102.3,48.43,55,6,55,6Z" transform="translate(-3.02 -2.81)" style="fill:#020202"/><path d="M52,190.4a41.31,41.31,0,0,1-1.49,5.38c-.81,2.07-1.76,2.91-1.5,4.13,1.25,6,1.49,19.65,1.49,19.65l5.77,1.88s.25-21,1.13-25.29c.15-.75-1.37-.64-2.38-1.63A21.39,21.39,0,0,1,52,190.4Z" transform="translate(-3.02 -2.81)" style="fill:#020202"/></svg>