<?xml version="1.0" encoding="utf-8"?>
<!-- Generator: Adobe Illustrator 21.1.0, SVG Export Plug-In . SVG Version: 6.00 Build 0)  -->
<svg version="1.1" id="Layer_1" xmlns="http://www.w3.org/2000/svg" xmlns:xlink="http://www.w3.org/1999/xlink" x="0px" y="0px"
	 viewBox="0 0 97.9 218.6" style="enable-background:new 0 0 97.9 218.6;" xml:space="preserve">
<style type="text/css">
	.st0{fill:#1BBF1B;}
</style>
<title>mongodb-ic-hover</title>
<path class="st0" d="M46.5,0"/>
<path class="st0" d="M41.1,186.2c0,0,4.6-22.4,5.3-30c3.4-38.9,0-156.2,0-156.2S1.6,32.9,0,96.3C-1.4,155.5,41.1,186.2,41.1,186.2z"
	/>
<path class="st0" d="M52,3.2c0,0,1.6,61,2.2,111.2c0.3,20.8-2.4,38.5-2.2,50.4c0.1,7.7,2.5,15.1,7,21.3c0,0,37.4-25,38.9-83.4
	C99.3,45.6,52,3.2,52,3.2z"/>
<path class="st0" d="M49,187.6c-0.4,1.8-0.9,3.6-1.5,5.4c-0.8,2.1-1.8,2.9-1.5,4.1c1.2,6,1.5,19.6,1.5,19.6l5.8,1.9
	c0,0,0.2-21,1.1-25.3c0.2-0.8-1.4-0.6-2.4-1.6C50.8,190.5,49.8,189.1,49,187.6z"/>
</svg>
