<svg id="Layer_1" data-name="Layer 1" xmlns="http://www.w3.org/2000/svg" viewBox="0 0 1417.65 1652.09"><title>mysql-ic-hover</title><path d="M896,778.78q217,0,405.69-39.38t297.63-116.3V778.78Q1599.32,842,1505,896t-256.42,85.63q-162.09,31.59-352.58,31.59T543.42,981.63Q381.33,950,287,896T192.68,778.78V623.1q109,76.93,297.63,116.3T896,778.78Zm0,703.32q217,0,405.69-39.38t297.63-116.3V1482.1q0,63.19-94.33,117.22t-256.42,85.63q-162.09,31.59-352.58,31.59t-352.58-31.59Q381.33,1653.35,287,1599.32T192.68,1482.1V1326.42q109,76.93,297.63,116.3T896,1482.1Zm0-351.66q217,0,405.69-39.38t297.63-116.3v155.68q0,63.19-94.33,117.22t-256.42,85.63q-162.09,31.59-352.58,31.59t-352.58-31.59Q381.33,1301.69,287,1247.66t-94.33-117.22V974.76q109,76.93,297.63,116.3T896,1130.44Zm0-1055q190.48,0,352.58,31.59T1505,192.68q94.33,54,94.33,117.22V427.12q0,63.19-94.33,117.22T1248.58,630Q1086.48,661.56,896,661.56T543.42,630Q381.33,598.37,287,544.34T192.68,427.12V309.9q0-63.19,94.33-117.22t256.42-85.63Q705.52,75.46,896,75.46Z" transform="translate(-187.18 -69.96)" style="fill:#ffed10;stroke:#020202;stroke-miterlimit:10;stroke-width:11px"/></svg>