<svg id="Layer_1" data-name="Layer 1" xmlns="http://www.w3.org/2000/svg" viewBox="0 0 1536 1792"><title>mysql-ic</title><path d="M896,768q237,0,443-43t325-127V768q0,69-103,128t-280,93.5Q1104,1024,896,1024T511,989.5Q334,955,231,896T128,768V598q119,84,325,127T896,768Zm0,768q237,0,443-43t325-127v170q0,69-103,128t-280,93.5Q1104,1792,896,1792t-385-34.5Q334,1723,231,1664T128,1536V1366q119,84,325,127T896,1536Zm0-384q237,0,443-43t325-127v170q0,69-103,128t-280,93.5Q1104,1408,896,1408t-385-34.5Q334,1339,231,1280T128,1152V982q119,84,325,127T896,1152ZM896,0q208,0,385,34.5T1561,128q103,59,103,128V384q0,69-103,128t-280,93.5Q1104,640,896,640T511,605.5Q334,571,231,512T128,384V256q0-69,103-128T511,34.5Q688,0,896,0Z" transform="translate(-128)"/></svg>