<svg id="Layer_1" data-name="Layer 1" xmlns="http://www.w3.org/2000/svg" viewBox="0 0 256 288.46"><title>nodejs-ic</title><path d="M128,288.46a23.24,23.24,0,0,1-11.13-2.92L81.62,264.61c-5.3-2.92-2.65-4-1.06-4.51,7.16-2.39,8.48-2.92,15.9-7.16a2.44,2.44,0,0,1,2.65.27l27,16.17a3.37,3.37,0,0,0,3.18,0l105.74-61.22a3,3,0,0,0,1.59-2.92V83.08a3,3,0,0,0-1.59-2.92l-105.74-61a3.37,3.37,0,0,0-3.18,0l-105.74,61a3.32,3.32,0,0,0-1.59,2.92V205.25a3.32,3.32,0,0,0,1.59,2.92l28.89,16.7c15.64,8,25.44-1.33,25.44-10.6V93.68a3.22,3.22,0,0,1,3.18-3.18H91.43a3.22,3.22,0,0,1,3.18,3.18V214.26c0,20.94-11.4,33.13-31.27,33.13-6.1,0-10.87,0-24.38-6.63l-27.83-15.9A22.37,22.37,0,0,1,0,205.52V83.35A22.37,22.37,0,0,1,11.13,64L116.87,2.78a23.65,23.65,0,0,1,22.26,0L244.87,64A22.37,22.37,0,0,1,256,83.35V205.52a22.37,22.37,0,0,1-11.13,19.35L139.13,286.08A27.12,27.12,0,0,1,128,288.46Zm32.6-84c-46.38,0-55.92-21.2-55.92-39.22a3.22,3.22,0,0,1,3.18-3.18h13.78a2.72,2.72,0,0,1,2.92,2.65c2.12,14,8.22,20.94,36.31,20.94,22.26,0,31.8-5,31.8-17,0-6.89-2.65-11.93-37.37-15.37-28.89-2.92-46.91-9.28-46.91-32.33,0-21.47,18-34.19,48.23-34.19,33.92,0,50.62,11.66,52.74,37.1a4.27,4.27,0,0,1-.8,2.39,3.27,3.27,0,0,1-2.12,1.06H192.66a3.11,3.11,0,0,1-2.92-2.39c-3.18-14.58-11.4-19.35-33.13-19.35-24.38,0-27.3,8.48-27.3,14.84,0,7.69,3.45,10.07,36.31,14.31,32.6,4.24,48,10.34,48,33.13-.27,23.32-19.35,36.57-53,36.57Z" transform="translate(0 0)" style="fill:#070707"/></svg>